# xmcd
#
# Track frame offsets:
#	151
#	8631
#	16545
#	23962
#	32701
#	45617
#	53198
#	62021
#	72526
#	83085
#	89214
#	96627
#	103773
#	110250
#	122558
#	138873
#	146331
#	152220
#	159734
#	170750
#	182703
#	188968
#	197856
#	205376
#	215183
#	224227
#	235081
#	242873
#	258650
#	270994
#
# Disc length: 3705 seconds
#
# Revision: 1
# Processed by: cddbd v1.5.2PL0 Copyright (c) Steve Scherf et al.
# Submitted via: audiograbber 1.83.01
#
DISCID=c60e771e
DTITLE=Various Artist - Get In Line Brother
DYEAR=2007
DGENRE=Bluegrass
TTITLE0=On and On
TTITLE1=I Like To Hear Them Preach It
TTITLE2=Prayer Bells Of Heaven
TTITLE3=God's Not Dead
TTITLE4=Wreck On The Highway
TTITLE5=Springtime In Heaven
TTITLE6=Working On A Building
TTITLE7=Where The Soul Of Man Never Dies
TTITLE8=Preaching, Praying, Singing
TTITLE9=Our Home Will Be Lonesome Tonight
TTITLE10=Somebody Touched Me
TTITLE11=I'll Be A Friend To Jesus
TTITLE12=Amen
TTITLE13=Lamp Lighting Time In The Valley
TTITLE14=Angel Band
TTITLE15=If I Could Hear My Mother Pray Again
TTITLE16=You Got To Move
TTITLE17=You Go To Your Church
TTITLE18=Methodist Pie
TTITLE19=Is She Praying There
TTITLE20=Camping In Canaan's Land
TTITLE21=Leaning On The Everlasting Arms
TTITLE22=Heavenly Light Is Shining On Me
TTITLE23=Church In The Wildwood
TTITLE24=Will The Angels Play Their Harp's For Me
TTITLE25=Are You Washed In The Blood
TTITLE26=Dying Preacher's Bible
TTITLE27=I'm Going Home
TTITLE28=The Devil's Slate
TTITLE29=Get In Line Brother
EXTD=Real Mountain Bluegrass Gospel
EXTT0=The House Brothers
EXTT1=Jim Greer and the Mac-O-Chee Valley Boys
EXTT2=Frosty Mountain Boys
EXTT3=
EXTT4=The Marksmen
EXTT5=The House Brothers
EXTT6=Red Smiley and The Bluegrass Cut-Ups
EXTT7=J.D. Jarvis
EXTT8=Blue Ridge Mountaineers
EXTT9=HYLO BROWN and The Timberliners
EXTT10=The House Brothers
EXTT11=Red White and The Dixie Blue Grass Band
EXTT12=J>D> Jarvis
EXTT13=Jim Greer and the Mac-O-Chee Valley Boys
EXTT14=The Marksmen
EXTT15=The House Brothers
EXTT16=Rusty York and J.D. Jarvis
EXTT17=Red White and The Dixie Blue Grass Band
EXTT18=HYLO BROWN and The Timberliners
EXTT19=Mac Martin
EXTT20=The House Brothers
EXTT21=J.D. Jarvis
EXTT22=Red White and The Dixie Blue Grass Band
EXTT23=Jim Greer and The Mac-O-Chee Valley Boys
EXTT24=HYLO BROWN and The Timberliners
EXTT25=J.D. Jarvis
EXTT26=The House Brothers
EXTT27=J.E. Mainer and The Mountaineers
EXTT28=Earl Taylor and Jim McCall with The Stoney Mountain Boys
EXTT29=J.D. Jarvis
PLAYORDER=
